<svg width="106" height="23" viewBox="0 0 106 23" fill="none" xmlns="http://www.w3.org/2000/svg">
<path fill-rule="evenodd" clip-rule="evenodd" d="M9.58973 0H0V22.999L9.58973 0ZM63.804 0.000332937V0L63.8044 0.000332937H63.804ZM63.804 0.000332937V18.1474C63.804 19.5857 63.8771 21.3552 63.9356 22.7386H60.4963L60.2717 20.8928H60.19C59.612 22.0308 58.3551 22.9983 56.8523 22.9983C53.5585 22.9983 51.9249 19.355 51.9249 14.7548C51.9249 9.14944 54.3607 6.42369 57.0157 6.42369C58.4042 6.42369 59.3031 7.10521 59.7555 8.09103H59.8226V0.000332937H63.804ZM40.8781 22.7419L41.9288 17.4169H46.0623L47.0894 22.7419H50.9901L46.5935 0.5883H41.8381L36.9983 22.7419H40.8781ZM44.8785 9.49237L45.6856 14.29V14.2903H42.3636L43.2332 9.50369C43.4181 8.49425 43.6543 6.95962 43.8607 5.61894C43.9246 5.20369 43.9856 4.80704 44.0414 4.45037H44.1288C44.2078 4.97693 44.2955 5.58564 44.386 6.21377L44.3863 6.21585L44.3863 6.21591C44.553 7.37317 44.7291 8.59608 44.8785 9.49237ZM59.8219 12.846C59.8219 12.5507 59.8219 12.2055 59.7632 11.8895C59.6087 10.7958 59.0281 9.81065 58.0943 9.81065C56.4926 9.81065 55.9033 12.1236 55.9033 14.8287C55.9033 17.937 56.7437 19.7062 58.0392 19.7062C58.6311 19.7062 59.3137 19.4019 59.6844 18.0975C59.7748 17.8378 59.8216 17.4895 59.8216 17.083V12.8457L59.8219 12.846ZM72.0227 22.999C68.3522 22.999 66.0502 20.0458 66.0502 14.7588C66.0502 8.98897 69.0059 6.42435 72.1157 6.42435C75.7364 6.42435 78.0064 9.52167 78.0064 14.6652C78.0064 21.274 74.4505 22.9986 72.0552 22.9986H72.023L72.0227 22.999ZM73.9951 14.6882C73.9951 17.0657 73.6184 19.9373 72.0984 19.9373L72.0987 19.9376H72.0639C70.4415 19.9376 69.9977 17.4169 69.9977 14.6885C69.9977 12.4282 70.3512 9.48271 72.032 9.48271C73.6184 9.48271 73.9951 12.4275 73.9951 14.6882ZM84.2151 0.000332937H80.2323V18.1474C80.2323 19.5857 80.1569 21.4078 80.0988 22.7386H83.5179L83.7394 20.8176H83.8235C84.6579 22.381 85.583 22.9983 86.9715 22.9983C89.8863 22.9983 92.1361 19.9722 92.1361 14.3196C92.1361 9.84561 90.6274 6.42402 87.6252 6.42402C86.1082 6.42402 85.0635 7.12885 84.2789 8.36304H84.2151V0.000332937ZM84.2151 17.0068C84.2151 17.4076 84.2882 17.7825 84.3729 18.0332C84.7725 19.3759 85.4491 19.7062 85.9919 19.7062C87.5332 19.7062 88.1543 17.7495 88.1543 14.6206C88.1543 11.7723 87.4976 9.81065 85.9746 9.81065C85.2193 9.81065 84.5828 10.633 84.3642 11.5153C84.2878 11.7933 84.2154 12.2258 84.2154 12.5241V17.0071L84.2151 17.0068ZM97.6648 16.0046C97.7113 18.9078 99.2346 19.8534 101.125 19.8534C102.324 19.8534 103.351 19.5863 104.109 19.3007L104.646 22.1719C103.59 22.6281 101.959 22.9144 100.395 22.9144C96.1209 22.9144 93.7867 19.9869 93.7867 14.9872C93.7867 9.62088 96.4939 6.39805 100.03 6.39805C103.447 6.39805 105.34 9.24633 105.34 13.8958C105.34 14.9602 105.296 15.5598 105.226 16.0273L97.6648 16.0046ZM99.7771 9.3482C101.04 9.3482 101.7 10.9283 101.679 13.1823H97.6797C97.7233 11.463 98.3361 9.3482 99.7771 9.3482ZM19.0734 22.9977L12.9673 8.47456L8.77543 18.3717H13.246L15.0726 22.9977H19.0734ZM25.927 0H16.3425L25.927 22.999V0Z" fill="white"/>
</svg>
