<svg width="139" height="36" viewBox="0 0 139 36" fill="none" xmlns="http://www.w3.org/2000/svg">
<path fill-rule="evenodd" clip-rule="evenodd" d="M2.9386 6.80862H6.2411C6.43334 6.80862 6.58439 6.65764 6.58439 6.4655C6.58439 6.4655 6.5432 3.63819 6.5432 2.84902V2.84216C6.5432 2.19709 6.68051 1.63438 6.91395 1.16087L7.02381 0.948138C7.01008 0.948138 6.99634 0.955 6.98261 0.968725L0.569869 7.3233C0.556137 7.33702 0.549271 7.34388 0.549271 7.35761C0.679723 7.28898 0.865102 7.19977 0.8857 7.19291C1.4487 6.94586 2.12843 6.80862 2.9386 6.80862ZM28.6102 6.11552C28.3493 4.71559 27.5116 4.02249 26.7633 3.74799C25.9531 3.45291 24.2984 3.15096 22.2249 2.90392C20.5565 2.70491 18.5997 2.7255 17.4119 2.75981C17.2677 1.78535 16.588 0.900101 15.8259 0.591294C13.7936 -0.22533 10.649 -0.0263212 9.83882 0.193275C9.2003 0.371697 8.48624 0.742266 8.09489 1.30498C7.82712 1.68241 7.65547 2.16964 7.65547 2.84216C7.65547 3.06284 7.66 3.45324 7.66515 3.8977L7.66516 3.89799C7.66898 4.22745 7.67315 4.58659 7.67607 4.92832C7.68215 5.63966 7.69362 6.28636 7.69616 6.42938L7.69616 6.42948L7.69667 6.45863C7.69667 7.17232 7.11306 7.75563 6.39901 7.75563H3.09652C2.38933 7.75563 1.85379 7.87229 1.44184 8.05757C1.02988 8.24286 0.741516 8.49676 0.514942 8.79185C0.0755248 9.38201 0 10.1163 0 10.8574C0 10.8574 0.00686589 11.4682 0.15105 12.6416C0.274636 13.5543 1.26332 19.9226 2.20395 21.8578C2.56784 22.6127 2.80815 22.9215 3.52907 23.2578C5.12196 23.9371 8.76088 24.6989 10.4705 24.9185C10.7489 24.9544 11.0104 24.9965 11.2559 25.0361C12.5119 25.2385 13.3487 25.3733 13.8828 24.2597C13.8828 24.2597 14.0133 23.9303 14.1849 23.443C14.7411 21.7686 14.8166 20.2795 14.8166 19.2021C14.8166 19.0923 14.9745 19.0854 14.9745 19.2021C14.9745 19.2443 14.9741 19.2923 14.9736 19.3456C14.9652 20.2549 14.9429 22.6869 16.8626 23.3676C17.6659 23.6489 19.3275 23.9028 21.0165 24.1018C22.5476 24.2803 23.653 24.8773 23.653 28.7957C23.653 31.177 23.1518 31.5063 20.5359 31.5063L20.3416 31.5065C18.3647 31.5081 17.6041 31.5087 17.6041 29.8731C17.6041 28.6245 18.7291 28.638 19.6881 28.6495H19.6881C19.778 28.6505 19.8664 28.6516 19.9523 28.6516C20.2333 28.6516 20.2094 28.521 20.1532 28.2135L20.1532 28.2135C20.1201 28.0327 20.0759 27.7907 20.0759 27.4781C20.0759 27.1233 20.1696 26.8325 20.24 26.6142C20.3357 26.3175 20.3882 26.1547 20.1033 26.1468C16.6498 26.0508 14.6175 26.14 14.6175 30.4633C14.6175 34.3817 16.1211 35.116 21.0234 35.116C24.8683 35.116 26.2208 34.9924 27.8137 30.0652C28.1296 29.0908 28.8848 26.1262 29.3448 21.1441C29.6195 18.0218 29.0565 8.51735 28.6102 6.11552ZM21.9091 16.6218C21.4353 16.6081 20.9753 16.6356 20.5496 16.7042C20.6663 15.7366 21.0714 14.5494 22.4858 14.5974C24.0512 14.6523 24.2709 16.1346 24.2778 17.1365C23.6187 16.8414 22.7948 16.6561 21.9091 16.6218ZM33.9038 21.9745H35.3799L35.4486 12.5387H33.8969V10.727H43.6877L43.8044 14.3984H41.8751L41.7103 12.5387H38.0164L37.9958 16.2307H41.7378V18.0423H37.9753L37.9547 21.9745H41.6691L41.9094 19.8746H44.0035L43.7632 23.7793H33.8969V21.9745H33.9038ZM58.1678 12.5456H59.4037V10.7339H54.0208V12.5456H55.5931L52.4005 21.4049H52.3524L49.1323 12.5456H50.4437V10.7339H44.8686V12.5456H46.18L50.8488 23.7862H53.5196L58.1678 12.5456ZM60.6876 21.9745H62.1638L62.2325 12.5387H60.6876V10.727H70.4784L70.5951 14.3984H68.6658L68.501 12.5387H64.8072L64.7866 16.2307H68.5285V18.0423H64.766L64.7385 21.9745H68.4529L68.6933 19.8746H70.7874L70.5471 23.7793H60.6876V21.9745ZM74.7215 21.9745H73.2453V23.7862H78.8685V21.9745H77.3168L77.3443 18.2345H77.8661C78.8204 18.2345 79.102 18.3992 80.3447 20.8285C81.7247 23.5666 81.9376 23.7793 83.7021 23.7793H85.0341V21.899C84.9761 21.906 84.9165 21.9161 84.8556 21.9264C84.7363 21.9466 84.6121 21.9676 84.4848 21.9676C84.0317 21.9676 83.7433 21.7549 82.9331 20.3961C81.7179 18.3031 81.4089 17.9943 80.1936 17.6581V17.61C82.528 17.0198 83.2695 15.6611 83.2695 14.1582C83.2695 12.4632 82.2946 10.727 79.2667 10.727H73.2385V12.5387H74.7902L74.7215 21.9745ZM77.3717 16.4228H78.3948C79.8023 16.4228 80.7498 15.6611 80.7498 14.4465C80.7498 13.2524 80.1524 12.5387 78.9646 12.5387H77.3923L77.3717 16.4228ZM97.0288 12.5456H95.4771V10.7339H100.599V12.5456H99.1229L99.0542 23.7862H97.0975L90.1217 14.4945H90.0736L89.9981 21.9745H91.5498V23.7862H86.4279V21.9745H87.904L87.9727 12.5387H86.421V10.727H90.2796L96.9052 19.5658H96.9533L97.0288 12.5456ZM114.496 17.0747C114.496 13.4514 112.518 10.4731 108.014 10.4731C103.991 10.4731 101.533 13.3279 101.533 17.4316C101.533 21.0755 103.51 24.0538 108.014 24.0538C112.038 24.0538 114.496 21.1922 114.496 17.0747ZM108.014 21.9539C110.445 21.9539 111.825 19.8815 111.825 17.2394C111.825 14.2612 110.204 12.573 108.014 12.573C105.584 12.573 104.204 14.6455 104.204 17.3355C104.204 20.2589 105.824 21.9539 108.014 21.9539ZM118.601 21.9745H120.078L120.146 12.5387H117.523L117.427 14.3984H115.45L115.594 10.727H127.301L127.445 14.3984H125.467L125.371 12.5387H122.748L122.68 21.9745H124.231V23.7862H118.608L118.601 21.9745ZM130.37 21.9745H128.893V23.7793H138.76L139 19.8746H136.906L136.666 21.9745H132.951L132.979 18.0423H136.741V16.2307H132.999L133.02 12.5387H136.714L136.878 14.3984H138.808L138.691 10.727H128.893V12.5387H130.445L130.37 21.9745Z" fill="white"/>
</svg>
