<svg width="156" height="30" viewBox="0 0 156 30" fill="none" xmlns="http://www.w3.org/2000/svg">
<path fill-rule="evenodd" clip-rule="evenodd" d="M0 15.0777C0 23.2936 6.71274 30 15.057 30C23.246 30 29.9587 23.2002 29.9587 15.0777C29.9587 6.72199 23.246 0 15.057 0C6.71274 0 0 6.72199 0 15.0777ZM10.5554 3.26425L15.057 18.1865L19.5585 3.26425L25.3019 22.3834H24.3706C24.3706 22.3834 24.0719 21.4065 23.7497 20.5181C22.4838 16.243 20.8178 14.5683 18.3167 15.544C17.7194 15.7002 16.8319 16.5066 16.2988 17.2539C15.9133 18.0262 15.2594 19.2201 15.057 20.2073C14.839 19.2201 14.1851 18.0262 13.8152 17.2539C13.2664 16.5066 12.3945 15.7002 11.7972 15.544C9.29613 14.5683 7.61459 16.243 6.36429 20.5181C6.04204 21.4065 5.71507 22.3834 5.74338 22.3834H4.81202L10.5554 3.26425ZM66.437 9.79275C65.5843 9.81025 64.7459 9.90234 63.9533 10.1036C61.501 10.6234 58.5976 12.4495 58.0547 15.2332C57.8524 16.7729 58.6287 18.1463 59.9174 18.9637C61.6563 19.988 63.7367 20.2846 65.8161 20.2073C67.3077 20.0505 68.8603 19.6603 70.1624 18.9637C71.4997 18.2088 72.5865 17.1474 73.1117 15.544C73.5647 14.6346 73.5181 13.2923 72.9565 12.4352C71.3134 10.4049 68.8758 9.75251 66.437 9.79275ZM93.9121 9.79275C93.0534 9.81025 92.2307 9.90234 91.4284 10.1036C88.9709 10.6234 86.0837 12.4495 85.5298 15.2332C85.3386 16.7729 86.0993 18.1463 87.3925 18.9637C89.1262 19.988 91.2062 20.2846 93.2912 20.2073C94.7764 20.0505 96.3286 19.6603 97.6375 18.9637C98.9675 18.2088 100.054 17.1474 100.587 15.544C101.048 14.6346 100.985 13.2923 100.432 12.4352C98.7967 10.4049 96.3442 9.75251 93.9121 9.79275ZM123.716 9.79275C122.857 9.81025 122.019 9.90234 121.232 10.1036C118.774 10.6234 115.872 12.4495 115.333 15.2332C115.142 16.7729 115.903 18.1463 117.196 18.9637C118.93 19.988 120.994 20.2846 123.095 20.2073C124.595 20.0505 126.132 19.6603 127.441 18.9637C128.771 18.2088 129.858 17.1474 130.39 15.544C130.851 14.6346 130.789 13.2923 130.235 12.4352C128.6 10.4049 126.148 9.75251 123.716 9.79275ZM42.9978 9.94819L40.2037 20.0518H43.4634C43.4634 20.0518 44.9306 14.7979 45.0157 14.7668C44.9928 14.5959 45.055 14.5648 45.0157 14.6114C45.0861 14.5648 45.1328 14.6114 45.1709 14.6114L46.4127 20.0518H48.5859L52.9323 14.7668C52.954 14.7358 52.9851 14.7202 52.9323 14.7668L51.5352 20.0518H55.5711L58.3652 9.94819H52.9323L49.362 14.3005L48.2755 9.94819H42.9978ZM74.5087 9.94819L73.5774 13.2124H77.6133C77.7627 13.1658 77.8249 13.2591 77.7685 13.3679L76.061 20.0518H79.9417L81.9596 13.2124V13.057H86.1507L86.9269 9.94819H74.5087ZM103.226 9.94819C102.394 13.2746 101.53 16.6943 100.742 20.0518H104.467L105.244 17.0984H108.503C108.989 17.0674 109.205 17.4404 109.279 17.8756L109.124 19.1192C109.066 19.3523 109.097 19.5233 109.124 19.5855C109.251 19.8653 109.437 20.0052 109.59 20.0518H114.091C113.869 19.8342 113.576 19.5078 113.626 19.1192C113.637 18.4041 113.915 17.6114 113.781 16.7876C113.622 16.2435 113.02 15.886 112.539 15.6995C112.448 15.6218 112.541 15.5751 112.539 15.544C113.606 15.1399 114.734 14.3938 115.178 13.2124C115.475 12.4974 115.382 11.4404 114.712 10.8808C114.24 10.3057 113.437 9.94819 112.694 9.94819H108.038H103.226ZM133.029 9.94819L130.701 20.0518H140.79L141.411 17.0984H135.513C135.506 17.1406 135.459 17.0628 135.513 16.943L137.065 9.94819H133.029ZM148.086 9.94819L141.567 20.0518H144.982L146.068 18.1865H150.88C150.854 18.2487 150.87 18.2798 150.88 18.342L151.346 20.0518H155.537L153.209 9.94819H148.086ZM66.437 12.4352C67.1248 12.4362 67.8252 12.6066 68.2997 12.9016C68.6501 13.1643 68.8991 13.4741 69.0758 13.8342C69.2416 14.8684 68.7591 15.8753 67.834 16.6321C66.8291 17.4709 65.226 17.8582 63.7981 17.2539C63.3427 17.1146 62.798 16.6189 62.7115 16.0104C62.6268 14.7599 63.296 13.5516 64.419 12.9016C64.9925 12.5911 65.7085 12.4207 66.437 12.4352ZM94.0673 12.4352C94.7412 12.4362 95.457 12.6066 95.93 12.9016C96.2661 13.1643 96.5306 13.4741 96.7061 13.8342C96.8729 14.8684 96.375 15.8753 95.4643 16.6321C94.4456 17.4709 92.8585 17.8582 91.4284 17.2539C90.9602 17.1146 90.4312 16.6189 90.3418 16.0104C90.2445 14.7599 90.9135 13.5516 92.0493 12.9016C92.6095 12.5911 93.3253 12.4207 94.0673 12.4352ZM123.716 12.4352C124.399 12.4362 125.115 12.6066 125.578 12.9016C125.939 13.1643 126.188 13.4741 126.354 13.8342C126.53 14.8684 126.032 15.8753 125.113 16.6321C124.103 17.4709 122.517 17.8582 121.077 17.2539C120.619 17.1146 120.074 16.6189 119.99 16.0104C119.918 14.7599 120.587 13.5516 121.698 12.9016C122.283 12.5911 122.999 12.4207 123.716 12.4352ZM108.193 12.5907H110.521C110.753 12.6057 110.999 12.7707 111.142 13.057C111.214 13.2956 111.106 13.6256 110.832 13.8342C110.584 14.1355 110.322 14.2555 109.9 14.3005H106.02L106.485 12.5907H108.193ZM149.483 13.2124C149.48 13.2124 149.511 13.2124 149.483 13.2124L150.104 15.6995H147.776L149.483 13.2124Z" fill="white"/>
</svg>
