<svg width="96" height="26" viewBox="0 0 96 26" fill="none" xmlns="http://www.w3.org/2000/svg">
<path fill-rule="evenodd" clip-rule="evenodd" d="M3.93036 11.1524V25.4968C3.01957 25.605 2.10878 25.7257 1.20237 25.8459L1.20235 25.8459L1.20232 25.8459C0.809224 25.898 0.416949 25.95 0.0258576 26.0008H0V0H3.93036H4.09843L9.33459 14.8484V0H13.265V24.4371C11.7652 24.5922 10.2655 24.7473 8.77866 24.9153L3.93036 11.1524ZM35.2568 22.951C36.6273 22.8993 37.9848 22.8605 39.3553 22.8218V3.77348H43.1822V0H31.4299V3.77348H35.2568V22.951ZM49.6434 22.7249C49.0907 22.7216 48.5364 22.7184 47.9788 22.7184C47.8878 22.7184 47.7983 22.7198 47.7092 22.7213H47.7091C47.5325 22.7242 47.3577 22.727 47.1772 22.7184V0H56.9514V3.77348H51.2886V10.1315H56.2144V13.8921H51.2886V22.7313C50.7407 22.7313 50.1928 22.7281 49.6434 22.7249ZM78.7493 24.0753V0H74.6509V23.7264C75.0956 23.7641 75.5403 23.8005 75.9846 23.8368C76.9094 23.9125 77.8323 23.988 78.7493 24.0753ZM81.8522 24.3596C83.1839 24.4888 84.5285 24.631 85.8602 24.7731L88.795 17.5105L91.5876 25.4322C93.0227 25.6131 94.4578 25.794 95.88 26.0008L90.98 12.0958L95.88 0H91.7299L91.6911 0.0646143L89.0407 6.60358L86.7135 0.0129229H82.6151L86.8428 12.0183L81.8522 24.3596ZM27.4737 3.77348V0H17.6866V20.2631V24.0365C20.9317 23.7522 24.1898 23.5196 27.4608 23.3258V22.2402V19.5523C25.5732 19.6557 23.6856 19.7849 21.798 19.9271V13.905H26.7238V10.1315H21.798V3.77348H27.4737ZM65.0836 0V19.3714C66.9712 19.4618 68.8588 19.5652 70.7593 19.7074V22.2532V23.4679C67.5013 23.2482 64.2432 23.0802 60.9722 22.9639V19.1905V0H65.0836Z" fill="white"/>
</svg>
