<svg id="smart-text" viewBox="0 0 47 48" width="100%" height="100%" fill="none" xmlns="http://www.w3.org/2000/svg">
    <path fill-rule="evenodd" clip-rule="evenodd" d="M0.85022 3.73816V14.6952H46.1672V3.73816C46.1672 2.08116 44.8242 0.738159 43.1672 0.738159H3.85022C2.19322 0.738159 0.85022 2.08116 0.85022 3.73816Z" fill="#E0E7ED"></path>
    <path fill-rule="evenodd" clip-rule="evenodd" d="M43.1514 46.3072H3.84861C2.66404 46.3072 1.69939 45.3473 1.69939 44.1663V15.6824H45.3006V44.1663C45.3006 45.3473 44.337 46.3072 43.1514 46.3072ZM1.69939 3.92532C1.69939 2.74533 2.66404 1.78541 3.84861 1.78541H43.1514C44.337 1.78541 45.3006 2.74533 45.3006 3.92532V13.9895H1.69939V3.92532ZM43.1514 0H3.84861C1.72638 0 0 1.71969 0 3.83371V3.92532V14.8359V44.1663C0 46.2803 1.72638 48 3.84861 48H43.1514C45.2736 48 47 46.2803 47 44.1663V14.8359V3.92532V3.83371C47 1.71969 45.2736 0 43.1514 0Z" fill="#43484D"></path>
    <path fill-rule="evenodd" clip-rule="evenodd" d="M17.7534 26.3213C17.4214 25.9893 16.8834 25.9893 16.5514 26.3213L11.8864 30.9863C11.5544 31.3183 11.5544 31.8563 11.8864 32.1883L16.5514 36.8533C16.7174 37.0193 16.9344 37.1023 17.1524 37.1023C17.3704 37.1023 17.5874 37.0193 17.7534 36.8533C18.0854 36.5213 18.0854 35.9833 17.7534 35.6513L13.6894 31.5873L17.7534 27.5233C18.0854 27.1913 18.0854 26.6533 17.7534 26.3213Z" fill="#43484D"></path>
    <path fill-rule="evenodd" clip-rule="evenodd" d="M28.6055 26.3213C28.2735 25.9893 27.7355 25.9893 27.4035 26.3213C27.0715 26.6533 27.0715 27.1913 27.4035 27.5233L31.4675 31.5873L27.4035 35.6513C27.0715 35.9833 27.0715 36.5213 27.4035 36.8533C27.5695 37.0193 27.7865 37.1023 28.0045 37.1023C28.2215 37.1023 28.4395 37.0193 28.6055 36.8533L33.2715 32.1883C33.4305 32.0293 33.5205 31.8133 33.5205 31.5873C33.5205 31.3623 33.4305 31.1453 33.2715 30.9863L28.6055 26.3213Z" fill="#43484D"></path>
    <path fill-rule="evenodd" clip-rule="evenodd" d="M24.958 23.3726C24.515 23.2326 24.034 23.4816 23.893 23.9296L19.652 37.4806C19.512 37.9296 19.761 38.4056 20.209 38.5456C20.293 38.5726 20.379 38.5846 20.463 38.5846C20.825 38.5846 21.16 38.3516 21.274 37.9886L25.515 24.4376C25.655 23.9896 25.406 23.5126 24.958 23.3726Z" fill="#43484D"></path>
    <path fill-rule="evenodd" clip-rule="evenodd" d="M10.293 7.71661C10.293 8.77361 9.436 9.63061 8.379 9.63061C7.322 9.63061 6.466 8.77361 6.466 7.71661C6.466 6.65961 7.322 5.80261 8.379 5.80261C9.436 5.80261 10.293 6.65961 10.293 7.71661Z" fill="#43484D"></path>
    <path opacity="0.3" fill-rule="evenodd" clip-rule="evenodd" d="M16.293 7.71661C16.293 8.77361 15.436 9.63061 14.379 9.63061C13.322 9.63061 12.466 8.77361 12.466 7.71661C12.466 6.65961 13.322 5.80261 14.379 5.80261C15.436 5.80261 16.293 6.65961 16.293 7.71661Z" fill="#43484D"></path>
    <path opacity="0.3" fill-rule="evenodd" clip-rule="evenodd" d="M22.293 7.71661C22.293 8.77361 21.436 9.63061 20.379 9.63061C19.322 9.63061 18.466 8.77361 18.466 7.71661C18.466 6.65961 19.322 5.80261 20.379 5.80261C21.436 5.80261 22.293 6.65961 22.293 7.71661Z" fill="#43484D"></path>
</svg>