<svg width="140" height="30" viewBox="0 0 140 30" fill="none" xmlns="http://www.w3.org/2000/svg">
<path fill-rule="evenodd" clip-rule="evenodd" d="M2.90709 0H136.715C138.332 0 139.622 1.49881 139.643 3.37827V26.6217C139.643 28.5012 138.332 30 136.735 30H2.90709C1.28976 30 0 28.4774 0 26.6217V3.37827C0 1.49881 1.28976 0 2.90709 0ZM132.825 25.2181C134.443 25.2181 135.732 23.6955 135.732 21.8398H135.753V7.89849C135.753 6.01903 134.443 4.52022 132.846 4.52022H6.79685C5.17953 4.52022 3.88976 6.01903 3.88976 7.89849V21.8398C3.88976 23.7193 5.17953 25.2181 6.79685 25.2181H132.825ZM7.37008 21.9588V15V8.04124L18.1795 8.06503C19.1213 8.20777 19.8787 9.70658 19.8787 11.5385C19.8787 13.3285 19.1555 14.8005 18.2438 15C19.1555 15.1995 19.8787 16.6715 19.8787 18.4615C19.8787 20.2934 19.1213 21.7922 18.1795 21.935V21.9588H7.37008ZM16.5827 18.866H9.99055V16.0111H16.5827C17.1559 16.0587 17.6063 16.6772 17.6063 17.4385C17.6063 18.1998 17.1559 18.8184 16.5827 18.866ZM9.99055 13.3703H16.5827C17.1559 13.3228 17.6063 12.7042 17.6063 11.9429C17.6063 11.1816 17.1559 10.563 16.5827 10.5155H9.99055V13.3703ZM42.2551 21.5305H39.8598L45.9811 8.1364H46.3291H48.3764H48.7244L54.8661 21.5305H52.4504L51.1457 18.6757H43.5598L42.2551 21.5305ZM50.0149 16.2014L47.3528 10.3762L44.6906 16.2014H50.0149ZM90.8158 15.7494V19.2704H100.376V21.7446H88.6866V20.4005V8.18398H90.8158V8.20777H100.376V10.682H90.8158V13.2752H96.589V15.7494H90.8158ZM26.1638 21.7446V15.7018H27.5805L33.8205 21.7446H37.2394L30.9994 15.7018H34.7622V15.678C35.7449 15.5353 36.5024 13.8699 36.5024 11.8715C36.5024 9.84933 35.7244 8.20777 34.7622 8.06503L23.6047 8.04124V14.8929V21.7446H26.1638ZM32.4898 13.7748H25.8976V10.9199H32.4898C33.063 10.9675 33.5134 11.586 33.5134 12.3473C33.5134 13.0849 33.063 13.7034 32.4898 13.7748ZM106.825 21.7446V15.7018H108.242L114.482 21.7446H117.901L111.661 15.7018H115.424V15.678C116.406 15.5353 117.164 13.8699 117.164 11.8715C117.164 9.84933 116.386 8.20777 115.424 8.06503L104.266 8.04124V14.8929V21.7446H106.825ZM113.151 13.7748H106.559V10.9199H113.151C113.724 10.9675 114.175 11.586 114.175 12.3473C114.175 13.0849 113.724 13.7034 113.151 13.7748ZM123.92 10.5868H131.024V11.9429H133.562V10.5868C133.562 9.1594 132.58 8.01745 131.351 8.01745C131.275 8.01745 131.2 8.0218 131.126 8.03042V8.01745H123.797V8.0282C123.73 8.02108 123.662 8.01745 123.592 8.01745C122.425 8.01745 121.463 9.11182 121.463 10.4917V13.6082C121.463 14.9643 122.425 16.0825 123.592 16.0825C123.691 16.0825 123.79 16.0744 123.886 16.0587H130.983V19.0325H123.162V17.7954H120.726V19.1039C120.726 20.46 121.668 21.5781 122.855 21.5781L122.877 21.578L122.896 21.5777V21.6019H130.995C131.092 21.6176 131.19 21.6257 131.29 21.6257C132.477 21.6257 133.439 20.5075 133.439 19.1277V15.9873C133.439 14.6075 132.477 13.4893 131.29 13.4893C131.235 13.4893 131.18 13.4918 131.126 13.4966V13.4893H123.92V10.5868ZM58.8787 21.5781H56.7701L65.573 10.5393H58.4898V7.94608H68.2858H71.0394L62.2175 19.0087H69.8315V21.6019H58.8787V21.5781ZM71.6126 21.5781H73.7213V21.6019H84.674V19.0087H77.0523L85.841 7.94608H83.1079H73.3323V10.5393H80.3824L71.6126 21.5781Z" fill="white"/>
</svg>
