<svg viewBox="0 0 56 45" width="100%" height="100%" fill="none" xmlns="http://www.w3.org/2000/svg">
    <path opacity="0.3" fill-rule="evenodd" clip-rule="evenodd" d="M3.4365 27.1562C3.3535 27.1562 3.2685 27.1442 3.1845 27.1182L0.627499 26.3242C0.179499 26.1852 -0.0715005 25.7092 0.0684995 25.2602C0.207499 24.8132 0.6825 24.5622 1.1315 24.7002L3.6885 25.4942C4.1365 25.6332 4.3875 26.1102 4.2485 26.5582C4.1345 26.9222 3.7995 27.1562 3.4365 27.1562ZM11.0775 29.5272C10.9945 29.5272 10.9095 29.5152 10.8255 29.4892L7.0045 28.3032C6.5565 28.1642 6.3055 27.6882 6.4455 27.2392C6.5845 26.7922 7.0595 26.5422 7.5085 26.6792L11.3295 27.8652C11.7775 28.0042 12.0285 28.4812 11.8885 28.9292C11.7755 29.2932 11.4405 29.5272 11.0775 29.5272Z" fill="#43484D"></path>
    <path opacity="0.3" fill-rule="evenodd" clip-rule="evenodd" d="M48.207 28.1587C48.133 28.1587 48.059 28.1497 47.984 28.1287L44.123 27.0847C43.67 26.9617 43.401 26.4957 43.524 26.0417C43.647 25.5887 44.119 25.3207 44.566 25.4437L48.428 26.4887C48.881 26.6107 49.149 27.0767 49.026 27.5307C48.924 27.9087 48.581 28.1587 48.207 28.1587ZM54.652 29.9027C54.578 29.9027 54.504 29.8927 54.43 29.8727L51.846 29.1737C51.393 29.0507 51.124 28.5837 51.247 28.1307C51.37 27.6777 51.84 27.4087 52.289 27.5327L54.873 28.2317C55.326 28.3547 55.595 28.8217 55.472 29.2747C55.369 29.6527 55.026 29.9027 54.652 29.9027Z" fill="#43484D"></path>
    <path fill-rule="evenodd" clip-rule="evenodd" d="M34.0963 1.62305H13.5613C11.9043 1.62305 10.5613 2.96605 10.5613 4.62305V41.115C10.5613 42.772 11.9043 44.115 13.5613 44.115H42.5153C44.1723 44.115 45.5153 42.772 45.5153 41.115V13.296" fill="#E0E7ED"></path>
    <path fill-rule="evenodd" clip-rule="evenodd" d="M42.5156 44.9658H13.5616C11.4386 44.9658 9.7116 43.2388 9.7116 41.1158V4.62283C9.7116 2.49983 11.4386 0.772827 13.5616 0.772827H34.0966C34.5666 0.772827 34.9466 1.15383 34.9466 1.62283C34.9466 2.09183 34.5666 2.47283 34.0966 2.47283H13.5616C12.3756 2.47283 11.4116 3.43783 11.4116 4.62283V41.1158C11.4116 42.3008 12.3756 43.2658 13.5616 43.2658H42.5156C43.7016 43.2658 44.6656 42.3008 44.6656 41.1158V13.2968C44.6656 12.8268 45.0456 12.4458 45.5156 12.4458C45.9856 12.4458 46.3656 12.8268 46.3656 13.2968V41.1158C46.3656 43.2388 44.6386 44.9658 42.5156 44.9658Z" fill="#43484D"></path>
    <path fill-rule="evenodd" clip-rule="evenodd" d="M34.0963 1.62305V10.796C34.0963 12.177 35.2153 13.296 36.5963 13.296H45.5153L34.0963 1.62305Z" fill="#FEFEFE"></path>
    <path fill-rule="evenodd" clip-rule="evenodd" d="M34.9463 3.7075V10.7965C34.9463 11.7065 35.6863 12.4465 36.5963 12.4465H43.4953L34.9463 3.7075ZM45.5153 14.1465H36.5963C34.7493 14.1465 33.2473 12.6435 33.2473 10.7965V1.6235C33.2473 1.2775 33.4563 0.966503 33.7753 0.835503C34.0963 0.705503 34.4633 0.781503 34.7043 1.0285L46.1233 12.7025C46.3623 12.9465 46.4313 13.3105 46.2993 13.6255C46.1663 13.9415 45.8573 14.1465 45.5153 14.1465Z" fill="#43484D"></path>
    <path fill-rule="evenodd" clip-rule="evenodd" d="M20.3008 32.5361C20.2178 32.5361 20.1348 32.5241 20.0538 32.4991L10.3148 29.5341C9.8648 29.3971 9.6118 28.9231 9.7478 28.4741C9.8858 28.0241 10.3628 27.7711 10.8088 27.9081L20.0988 30.7361L30.4848 21.7271C30.6978 21.5411 30.9888 21.4731 31.2648 21.5491L45.7388 25.4911C46.1928 25.6141 46.4588 26.0811 46.3358 26.5341C46.2118 26.9881 45.7438 27.2511 45.2918 27.1311L31.2548 23.3081L20.8578 32.3281C20.7008 32.4641 20.5028 32.5361 20.3008 32.5361Z" fill="#43484D"></path>
    <path fill-rule="evenodd" clip-rule="evenodd" d="M22.5905 29.8644C23.5825 30.9094 23.5405 32.5604 22.4955 33.5534C21.4515 34.5454 19.7995 34.5034 18.8075 33.4584C17.8145 32.4134 17.8575 30.7624 18.9015 29.7694C19.9465 28.7774 21.5985 28.8194 22.5905 29.8644Z" fill="#FEFEFE"></path>
    <path fill-rule="evenodd" clip-rule="evenodd" d="M20.6982 29.9023C20.2452 29.9023 19.8152 30.0743 19.4862 30.3853C18.7842 31.0543 18.7562 32.1703 19.4242 32.8733C20.0692 33.5543 21.2282 33.5833 21.9112 32.9373C22.6142 32.2693 22.6422 31.1533 21.9742 30.4493C21.6382 30.0963 21.1852 29.9023 20.6982 29.9023ZM20.6992 35.1203C19.7562 35.1203 18.8412 34.7283 18.1912 34.0443C16.8782 32.6613 16.9332 30.4673 18.3152 29.1533C19.6462 27.8913 21.9422 27.9493 23.2072 29.2783C24.5202 30.6623 24.4642 32.8563 23.0812 34.1693C22.4352 34.7823 21.5902 35.1203 20.6992 35.1203Z" fill="#43484D"></path>
    <path fill-rule="evenodd" clip-rule="evenodd" d="M32.8632 20.5722C33.8552 21.6172 33.8132 23.2682 32.7682 24.2612C31.7242 25.2532 30.0722 25.2112 29.0802 24.1662C28.0872 23.1212 28.1302 21.4702 29.1742 20.4772C30.2192 19.4852 31.8712 19.5272 32.8632 20.5722Z" fill="#FEFEFE"></path>
    <path fill-rule="evenodd" clip-rule="evenodd" d="M30.9717 20.6104C30.5187 20.6104 30.0887 20.7814 29.7607 21.0934C29.4187 21.4174 29.2247 21.8544 29.2127 22.3244C29.2007 22.7944 29.3717 23.2404 29.6967 23.5814C30.3427 24.2624 31.5007 24.2924 32.1837 23.6444C32.8867 22.9764 32.9147 21.8614 32.2467 21.1574C31.9117 20.8044 31.4587 20.6104 30.9717 20.6104ZM30.9717 25.8284C30.0277 25.8284 29.1137 25.4364 28.4637 24.7524C27.8267 24.0824 27.4897 23.2044 27.5137 22.2804C27.5367 21.3574 27.9187 20.4974 28.5897 19.8614C29.9167 18.5974 32.2177 18.6574 33.4797 19.9864C34.7927 21.3704 34.7367 23.5644 33.3537 24.8774C32.7077 25.4904 31.8627 25.8284 30.9717 25.8284Z" fill="#43484D"></path>
</svg>