<svg width="79" height="35" viewBox="0 0 79 35" fill="none" xmlns="http://www.w3.org/2000/svg">
<path fill-rule="evenodd" clip-rule="evenodd" d="M70.6509 15.4471C71.2436 15.9642 72.9717 14.9454 74.2302 13.5153C75.2326 12.3762 76.7098 13.7629 75.4606 15.3828C73.7746 17.5691 70.3576 19.6023 68.3375 19.4181C66.6435 19.2634 66.4678 16.9874 66.6096 15.8374C66.6189 15.7619 66.6295 15.6857 66.6402 15.6096L66.6402 15.6093L66.6404 15.6078L66.6479 15.5545C64.685 17.1856 62.005 18.9807 59.662 19.0337C57.6999 19.078 55.9636 18.1585 55.8217 15.6357C55.7749 14.8052 55.8337 13.9917 55.9734 13.2047C55.2979 13.0735 54.7583 12.8193 54.3292 12.5175C52.4313 15.7784 49.54 19.1666 46.7578 19.3003C44.6737 19.4003 43.8843 17.6804 43.9335 15.5047C43.9556 14.5146 44.101 13.4983 44.3126 12.5134C42.9212 13.7348 41.2207 14.7087 40.1519 13.5369C39.3089 12.6127 39.9061 10.8328 40.3029 9.65043C40.533 8.96456 40.6957 8.47978 40.4706 8.47978C39.7285 8.47978 37.1789 11.6687 36.1368 19.2374C35.9116 20.8748 32.6174 21.0142 32.9181 19.0455C32.9298 18.9684 32.9624 18.7864 33.0099 18.5291C31.8239 19.8899 30.3863 21.1235 28.9443 21.3447C26.8258 21.6694 26.3595 19.285 26.3595 19.285C26.3595 19.285 24.7781 22.2902 22.7425 22.5237C21.1023 22.7115 20.0464 21.4641 19.8528 19.4438C19.478 15.5403 22.4284 7.61216 26.9674 7.12258C28.3506 6.97305 29.0263 7.91148 29.0263 7.91148C29.0263 7.91148 29.5935 6.76612 30.684 6.57067C31.4565 6.43208 32.2175 6.68685 32.344 7.85954C32.4416 8.76134 31.6437 10.7352 31.0656 11.6726C30.9114 11.9224 29.5919 16.9571 30.6779 16.8393C32.0029 16.6966 33.6165 13.9302 34.1168 13.0137C34.6785 10.3821 35.3015 7.7256 35.6642 6.95392C36.6551 4.84662 38.8308 5.39333 38.8704 6.50972C38.8994 7.32103 38.4978 8.24224 38.4978 8.24224C38.4978 8.24224 40.4947 5.1577 41.9637 4.95651C43.0104 4.81355 43.972 5.42696 44.1385 6.64694C44.2313 7.32456 43.8426 8.25869 43.509 9.06046C43.1825 9.84515 42.9087 10.5031 43.1908 10.6696C43.5661 10.891 44.7032 9.62323 45.4823 8.69929C45.8538 7.7625 46.2204 6.99574 46.4904 6.51573C47.5385 4.65254 49.4211 4.4888 50.1053 4.98549C50.3986 5.19843 50.7616 5.62131 50.5219 6.56657C50.3726 7.15565 49.8945 7.82729 49.3251 8.43277C48.4187 11.2661 47.3695 15.1516 48.2388 15.1778C49.1879 15.2065 51.8709 12.5298 52.5723 10.3542C52.5723 10.3542 51.8296 8.84253 52.0267 7.40113C52.3162 5.28536 53.4971 4.42238 54.465 4.37919C55.9723 4.31167 56.7005 5.58222 56.4488 7.41917C56.3566 8.09189 56.0313 9.07105 55.5344 10.1809C55.9163 10.4397 56.3356 10.583 56.7448 10.653C58.3029 7.04659 61.496 4.48197 63.9499 4.48197C65.3347 4.48197 66.8792 5.22823 66.9614 7.23575C66.9614 11.8185 61.5386 13.3742 59.5185 13.4871C59.4015 14.6295 59.7626 15.4851 60.9608 15.4851C63.2958 15.4851 65.833 13.4092 67.4751 11.7677C68.63 7.84506 70.6537 3.96341 72.8615 1.85175C76.0972 -1.24318 79 -0.221377 79 3.16139C79 6.81751 73.4881 11.5796 70.6654 13.3441C70.6654 13.3441 70.0572 14.9296 70.6509 15.4471ZM9.14851 29.6074C14.5648 27.0242 38.2835 19.9375 67.0429 22.2268C68.6333 22.3534 68.1139 24.3319 66.9997 24.2636C44.2178 22.8645 21.1193 27.8637 9.67253 34.0382C8.08926 34.8922 6.68831 34.4887 6.34662 33.6735C5.94807 32.7223 6.18725 31.0198 9.14851 29.6074ZM76.0237 3.08048C76.2074 3.08048 76.2987 3.21907 76.2987 3.5039C76.2987 5.66232 70.9844 10.2459 70.9844 10.2459C70.9844 10.2459 74.4746 3.08048 76.0237 3.08048ZM27.5997 11.0091C27.4321 12.3226 25.2084 18.0622 24.0004 18.0959C22.4519 18.1391 24.768 9.87554 27.2558 9.93321C27.6948 9.94333 27.6874 10.3203 27.5997 11.0091ZM8.0316 17.7469C8.5471 15.0218 9.00706 12.5903 8.16881 12.5812C6.0391 12.5585 3.40805 23.3098 3.7954 28.0025C4.0037 30.5259 0.0425083 31.0649 0.00259849 27.9C-0.122598 17.9794 4.297 6.8689 8.76144 7.11356C11.6773 7.2732 11.3755 11.6217 11.3755 11.6217C11.3755 11.6217 14.2736 3.97079 18.0254 3.9995C19.097 4.00797 20.1683 4.87423 20.3689 6.64557C20.5634 8.36169 19.9398 10.3771 19.2576 12.5825C18.3303 15.5798 17.2944 18.9282 18.0555 22.3534C18.4549 24.1499 14.5249 25.2009 14.0919 22.171C13.7573 19.8297 14.4632 16.816 15.0221 14.4295C15.5564 12.1482 15.9565 10.44 15.1853 10.44C12.9361 10.44 10.7184 20.8138 11.1249 24.1244C11.3638 26.0718 7.59968 27.0458 7.31484 23.663C7.19089 22.1911 7.62824 19.8791 8.0316 17.7469Z" fill="white"/>
</svg>
