<?xml version="1.0" encoding="utf-8"?>
<svg version="1.1" id="Layer_1" xmlns="http://www.w3.org/2000/svg" xmlns:xlink="http://www.w3.org/1999/xlink" x="0px" y="0px" viewBox="0 0 121 22" width="122" height="22" enable-background="new 0 0 17.679 17.678" xml:space="preserve">
    <path fill-rule="evenodd" clip-rule="evenodd" d="M2.74947 12.9202V21.5535H0V7.2341H2.66078V9.13938C3.54771 7.56157 5.32156 6.81732 6.97716 6.81732C8.75101 6.81732 10.4657 7.68065 11.2344 9.52639C12.3578 7.47226 14.1908 6.81732 15.9942 6.81732C18.4776 6.81732 20.9019 8.51421 20.9019 12.2652V21.5535H18.1524V12.5629C18.1524 10.6874 17.2359 9.28823 15.1369 9.28823C13.1856 9.28823 11.8553 10.8363 11.8553 12.8904V21.5535H9.07622V12.5629C9.07622 10.7172 8.18929 9.28823 6.06067 9.28823C4.07986 9.28823 2.74947 10.7767 2.74947 12.9202ZM28.1285 14.3789C28.1285 17.7131 30.1979 19.4993 32.5631 19.4993C34.9282 19.4993 36.9977 17.7131 36.9977 14.3789C36.9977 11.0744 34.9282 9.28823 32.5631 9.28823C30.1979 9.28823 28.1285 11.0744 28.1285 14.3789ZM25.2903 14.3789C25.2903 10.0325 28.3058 6.78755 32.5631 6.78755C36.8203 6.78755 39.8359 10.0325 39.8359 14.3789C39.8359 18.7551 36.8203 22 32.5631 22C28.3058 22 25.2903 18.7551 25.2903 14.3789ZM50.3736 9.318C47.8311 9.318 46.1755 11.4019 46.1755 14.3491C46.1755 17.2963 47.6833 19.4696 50.3441 19.4696C52.8866 19.4696 54.4535 17.2368 54.4535 14.2896C54.4535 11.3424 52.9161 9.318 50.3736 9.318ZM54.6309 21.5535C54.5717 21.226 54.483 20.4817 54.483 19.6184V19.3802C53.8031 20.7497 52.2953 21.9405 50.078 21.9405C45.9094 21.9405 43.3373 18.6062 43.3373 14.3491C43.3373 10.3004 46.0572 6.84709 50.078 6.84709C52.5909 6.84709 53.9509 8.09743 54.4239 9.25846V0H57.1734V18.9039C57.1734 20.2733 57.2916 21.3153 57.3212 21.5535H54.6309ZM72.3823 21.5535C72.3231 21.226 72.264 20.4222 72.264 19.8268C71.4953 21.3153 69.7215 22 68.0659 22C64.7547 22 62.7443 19.4993 62.7443 16.2544V7.2341H65.5234V15.8376C65.5234 17.8024 66.4103 19.5291 68.7459 19.5291C70.9928 19.5291 72.1162 18.0406 72.1162 15.8674V7.2341H74.8952V18.9039C74.8952 20.0352 74.9839 21.0474 75.0431 21.5535H72.3823ZM83.5409 0V21.5535H80.7618V0H83.5409ZM95.0838 9.25846C92.7482 9.25846 91.3291 11.0744 91.2109 12.9202H98.9863C98.9271 10.866 97.5967 9.25846 95.0838 9.25846ZM95.409 19.5291C97.715 19.5291 98.868 18.249 99.4002 16.6414L101.795 17.475C100.997 20.0054 98.7202 22 95.409 22C91.5952 22 88.2544 19.2016 88.2544 14.3491C88.2544 9.85386 91.4769 6.78755 95.0542 6.78755C99.4297 6.78755 101.884 9.82409 101.884 14.2896C101.884 14.6468 101.854 15.0041 101.824 15.1827H91.1222C91.1813 17.7429 93.0143 19.5291 95.409 19.5291ZM116.829 2.98155C116.834 3.02718 116.84 3.07281 116.844 3.1171L115.442 3.02045C115.441 3.00449 115.439 2.98697 115.436 2.96819C115.424 2.85903 115.406 2.70743 115.406 2.57342C115.406 1.22026 116.421 0 118.197 0C119.925 0 120.952 1.12361 120.952 2.46468C120.952 3.47955 120.384 4.3132 119.441 4.89312L117.919 5.8355C117.545 6.06506 117.23 6.34294 117.122 6.72955H121V8.01022H115.334C115.358 6.66915 115.829 5.61803 117.194 4.77231L118.487 3.96283C119.188 3.52788 119.49 3.05669 119.49 2.48885C119.49 1.84851 119.055 1.26859 118.173 1.26859C117.255 1.26859 116.808 1.90892 116.808 2.7184C116.808 2.79896 116.818 2.89025 116.829 2.98155ZM109.438 4.09573C109.438 3.10502 109.607 2.34387 109.993 1.86059C110.259 1.51022 110.634 1.28067 111.202 1.28067C111.77 1.28067 112.132 1.51022 112.41 1.86059C112.784 2.34387 112.954 3.10502 112.954 4.09573C112.954 5.08643 112.784 5.84758 112.41 6.33085C112.132 6.68123 111.77 6.91078 111.202 6.91078C110.634 6.91078 110.259 6.68123 109.993 6.33085C109.619 5.84758 109.438 5.08643 109.438 4.09573ZM108 4.09573C108 5.13476 108.169 6.11338 108.701 6.91078C109.208 7.67193 110.03 8.19145 111.202 8.19145C112.374 8.19145 113.183 7.67193 113.691 6.91078C114.222 6.11338 114.391 5.13476 114.391 4.09573C114.391 3.05669 114.222 2.07807 113.691 1.28067C113.183 0.519517 112.374 0 111.202 0C110.03 0 109.208 0.519517 108.701 1.28067C108.169 2.07807 108 3.05669 108 4.09573Z" fill="#43484D"></path>
</svg>