<svg id="prototype" viewBox="0 0 52 48" width="100%" height="100%" fill="none" xmlns="http://www.w3.org/2000/svg">
    <path fill-rule="evenodd" clip-rule="evenodd" d="M13.0709 14.7172H9.1637C8.69773 14.7172 8.32 14.3323 8.32 13.8586C8.32 13.3848 8.69773 13 9.1637 13H13.0709C13.5359 13 13.9136 13.3848 13.9136 13.8586C13.9136 14.3323 13.5359 14.7172 13.0709 14.7172ZM20.8863 14.7172H16.9781C16.5131 14.7172 16.1354 14.3323 16.1354 13.8586C16.1354 13.3848 16.5131 13 16.9781 13H20.8863C21.3512 13 21.729 13.3848 21.729 13.8586C21.729 14.3323 21.3512 14.7172 20.8863 14.7172ZM28.7016 14.7172H24.7934C24.3285 14.7172 23.9507 14.3323 23.9507 13.8586C23.9507 13.3848 24.3285 13 24.7934 13H28.7016C29.1666 13 29.5443 13.3848 29.5443 13.8586C29.5443 14.3323 29.1666 14.7172 28.7016 14.7172ZM44.3314 14.7172H40.4242C39.9592 14.7172 39.5815 14.3323 39.5815 13.8586C39.5815 13.3848 39.9592 13 40.4242 13H44.3314C44.7963 13 45.1741 13.3848 45.1741 13.8586C45.1741 14.3323 44.7963 14.7172 44.3314 14.7172ZM1.84305 16.3788C1.65567 16.3788 1.46631 16.3152 1.31066 16.1838C0.949781 15.8838 0.897235 15.3434 1.19169 14.9758C2.19203 13.7293 3.67222 13.0091 5.25056 13C5.73834 13.0051 6.09624 13.3798 6.09823 13.8535C6.1012 14.3283 5.72545 14.7141 5.26048 14.7172C4.18578 14.7232 3.1775 15.2141 2.49541 16.0636C2.32984 16.2707 2.08694 16.3788 1.84305 16.3788ZM50.8916 17.6949C50.5466 17.6949 50.2244 17.4778 50.0994 17.1293C49.7326 16.099 48.9405 15.296 47.9263 14.9283C47.488 14.7687 47.259 14.2778 47.4157 13.8313C47.5713 13.3848 48.0551 13.1515 48.4924 13.3101C49.9805 13.8515 51.1444 15.0293 51.6837 16.5434C51.8424 16.9889 51.6163 17.4808 51.1791 17.6424C51.0839 17.6788 50.9868 17.6949 50.8916 17.6949ZM0.842707 24.103C0.377731 24.103 0 23.7182 0 23.2444V19.2626C0 18.7889 0.377731 18.404 0.842707 18.404C1.30768 18.404 1.68541 18.7889 1.68541 19.2626V23.2444C1.68541 23.7182 1.30768 24.103 0.842707 24.103ZM51.1573 25.6263C50.6923 25.6263 50.3146 25.2414 50.3146 24.7677V20.7859C50.3146 20.3121 50.6923 19.9273 51.1573 19.9273C51.6223 19.9273 52 20.3121 52 20.7859V24.7677C52 25.2414 51.6223 25.6263 51.1573 25.6263ZM0.842707 32.0657C0.377731 32.0657 0 31.6808 0 31.2071V27.2253C0 26.7515 0.377731 26.3667 0.842707 26.3667C1.30768 26.3667 1.68541 26.7515 1.68541 27.2253V31.2071C1.68541 31.6808 1.30768 32.0657 0.842707 32.0657ZM51.1573 33.5889C50.6923 33.5889 50.3146 33.204 50.3146 32.7303V28.7485C50.3146 28.2747 50.6923 27.8899 51.1573 27.8899C51.6223 27.8899 52 28.2747 52 28.7485V32.7303C52 33.204 51.6223 33.5889 51.1573 33.5889ZM1.09949 39.997C0.752488 39.997 0.428294 39.7788 0.305357 39.4263C0.102116 38.8475 0 38.2394 0 37.6192V35.1879C0 34.7141 0.377731 34.3293 0.842707 34.3293C1.30768 34.3293 1.68541 34.7141 1.68541 35.1879V37.6192C1.68541 38.0424 1.75481 38.4566 1.89361 38.8505C2.04927 39.297 1.82025 39.7879 1.38204 39.9475C1.28885 39.9818 1.19367 39.997 1.09949 39.997ZM50.1718 41.3182C49.9854 41.3182 49.7981 41.2556 49.6424 41.1273C49.2805 40.8293 49.224 40.2879 49.5175 39.9202C50.039 39.2626 50.3146 38.4677 50.3146 37.6192V36.7111C50.3146 36.2374 50.6923 35.8525 51.1573 35.8525C51.6223 35.8525 52 36.2374 52 36.7111V37.6192C52 38.8475 51.5836 40.0485 50.8271 41C50.6606 41.2101 50.4167 41.3182 50.1718 41.3182ZM7.64286 43H5.2813C4.66166 43 4.05491 42.8919 3.47889 42.6778C3.04069 42.5162 2.81563 42.0232 2.97426 41.5778C3.13289 41.1313 3.6167 40.903 4.05392 41.0636C4.44553 41.2091 4.85895 41.2828 5.2813 41.2828H7.64286C8.10883 41.2828 8.48557 41.6677 8.48557 42.1414C8.48557 42.6152 8.10883 43 7.64286 43ZM15.4582 43H11.551C11.0861 43 10.7083 42.6152 10.7083 42.1414C10.7083 41.6677 11.0861 41.2828 11.551 41.2828H15.4582C15.9232 41.2828 16.3009 41.6677 16.3009 42.1414C16.3009 42.6152 15.9232 43 15.4582 43ZM23.2736 43H19.3664C18.9004 43 18.5237 42.6152 18.5237 42.1414C18.5237 41.6677 18.9004 41.2828 19.3664 41.2828H23.2736C23.7386 41.2828 24.1163 41.6677 24.1163 42.1414C24.1163 42.6152 23.7386 43 23.2736 43ZM31.089 43H27.1808C26.7158 43 26.3381 42.6152 26.3381 42.1414C26.3381 41.6677 26.7158 41.2828 27.1808 41.2828H31.089C31.5539 41.2828 31.9317 41.6677 31.9317 42.1414C31.9317 42.6152 31.5539 43 31.089 43ZM42.8115 43C42.3465 43 41.9688 42.6152 41.9688 42.1414C41.9688 41.6677 42.3465 41.2828 42.8115 41.2828H46.7187C47.1847 41.2828 47.5872 41.6667 47.5872 42.1414C47.5872 42.6152 47.2352 43 46.7703 43V42.1404L46.7435 43H42.8115Z" fill="#43484D" fill-opacity="0.3"></path>
    <path fill-rule="evenodd" clip-rule="evenodd" d="M22.92 42.043H12.17V13.631H22.92V42.043Z" fill="#E0E7ED"></path>
    <path fill-rule="evenodd" clip-rule="evenodd" d="M40.3392 44.1061C40.3392 45.3212 39.3682 46.3086 38.1753 46.3086H32.2727C31.3837 46.3086 30.6608 45.5728 30.6608 44.668V42.7906H35.9596C36.4178 42.7906 36.79 42.4118 36.79 41.9454C36.79 41.4781 36.4178 41.1002 35.9596 41.1002H30.6608V35.8302H33.0289C33.487 35.8302 33.8592 35.4514 33.8592 34.985C33.8592 34.5177 33.487 34.1398 33.0289 34.1398H30.6608V28.8698H35.9596C36.4178 28.8698 36.79 28.491 36.79 28.0246C36.79 27.5573 36.4178 27.1794 35.9596 27.1794H30.6608V21.9094H33.0289C33.487 21.9094 33.8592 21.5305 33.8592 21.0642C33.8592 20.5969 33.487 20.219 33.0289 20.219H30.6608V14.949H35.9596C36.4178 14.949 36.79 14.5701 36.79 14.1038C36.79 13.6364 36.4178 13.2586 35.9596 13.2586H30.6608V7.98856H33.0289C33.487 7.98856 33.8592 7.60972 33.8592 7.14337C33.8592 6.67603 33.487 6.29818 33.0289 6.29818H30.6608V3.33105C30.6608 2.4262 31.3837 1.69039 32.2727 1.69039H38.7273C39.6163 1.69039 40.3392 2.4262 40.3392 3.33105V44.1061ZM38.7273 0H32.2727C30.4683 0 29 1.4945 29 3.33105V44.6679C29 46.5055 30.4683 48 32.2727 48H38.1753C40.2845 48 42 46.2529 42 44.1061V3.33105C42 1.4945 40.5317 0 38.7273 0Z" fill="#43484D"></path>
    <path fill-rule="evenodd" clip-rule="evenodd" d="M18.6771 46.3168H15.3229C13.8424 46.3168 12.6386 45.0801 12.6386 43.5603V42.8128H21.3614V43.5603C21.3614 45.0801 20.1576 46.3168 18.6771 46.3168ZM16.1855 8.67337C16.3706 8.3902 16.6675 8.22782 17 8.22782C17.3316 8.22782 17.6294 8.3902 17.8145 8.67337L20.6424 12.9982H13.3566L16.1855 8.67337ZM17.8193 14.6814H21.3402C21.3499 14.7775 21.3614 14.8725 21.3614 14.9696V41.1295H17.8193V14.6814ZM12.6386 14.9696C12.6386 14.8725 12.6501 14.7775 12.6588 14.6814H16.1807V41.1295H12.6386V14.9696ZM22.2472 12.4329L19.1745 7.73474C18.8458 7.23275 18.3629 6.88224 17.8193 6.69709V4.8416C17.8193 4.37724 17.452 4 17 4C16.548 4 16.1807 4.37724 16.1807 4.8416V6.69709C15.6371 6.88224 15.1542 7.23275 14.8246 7.73474L11.7518 12.4329C11.2602 13.1863 11 14.0626 11 14.9696V43.5603C11 46.0079 12.9383 48 15.3229 48H18.6771C21.0607 48 23 46.0079 23 43.5603V14.9696C23 14.0626 22.7398 13.1863 22.2472 12.4329Z" fill="#43484D"></path>
</svg>